<svg xmlns="http://www.w3.org/2000/svg" width="22" height="20" viewBox="0 0 22 20" fill="none">
  <path d="M11.55 0V5.08C11.2198 5.02293 10.8851 4.99615 10.55 5C10.2149 4.99615 9.8802 5.02293 9.55 5.08V0M15.45 13C15.4039 13.1864 15.3472 13.3701 15.28 13.55L18.55 15.42V20H16.55V16.58L14.29 15.29C13.8263 15.8274 13.2521 16.2586 12.6067 16.5541C11.9613 16.8496 11.2598 17.0026 10.55 17.0026C9.84016 17.0026 9.13866 16.8496 8.49326 16.5541C7.84787 16.2586 7.27375 15.8274 6.81 15.29L4.55 16.58V20H2.55V15.42L5.82 13.55C5.75282 13.3701 5.69606 13.1864 5.65 13H3.85L1.1 14.83L0 13.17L3.25 11H5.65C5.71275 10.699 5.80313 10.4044 5.92 10.12L4.36 9.12L0.79 10L0.31 8L4.74 6.92L7.05 8.45C7.98464 7.53386 9.24124 7.02071 10.55 7.02071C11.8588 7.02071 13.1154 7.53386 14.05 8.45L16.32 6.92L20.79 8L20.31 10L16.74 9.11L15.18 10.11C15.2975 10.3976 15.3878 10.6956 15.45 11H17.85L21.1 13.16L20 14.82L17.25 13M9.55 12C9.55 11.8022 9.49135 11.6089 9.38147 11.4444C9.27159 11.28 9.11541 11.1518 8.93268 11.0761C8.74996 11.0004 8.54889 10.9806 8.35491 11.0192C8.16093 11.0578 7.98275 11.153 7.84289 11.2929C7.70304 11.4327 7.6078 11.6109 7.56921 11.8049C7.53063 11.9989 7.55043 12.2 7.62612 12.3827C7.70181 12.5654 7.82998 12.7216 7.99443 12.8315C8.15888 12.9414 8.35222 13 8.55 13C8.81522 13 9.06957 12.8946 9.25711 12.7071C9.44464 12.5196 9.55 12.2652 9.55 12ZM13.55 12C13.55 11.8022 13.4914 11.6089 13.3815 11.4444C13.2716 11.28 13.1154 11.1518 12.9327 11.0761C12.75 11.0004 12.5489 10.9806 12.3549 11.0192C12.1609 11.0578 11.9827 11.153 11.8429 11.2929C11.703 11.4327 11.6078 11.6109 11.5692 11.8049C11.5306 11.9989 11.5504 12.2 11.6261 12.3827C11.7018 12.5654 11.83 12.7216 11.9944 12.8315C12.1589 12.9414 12.3522 13 12.55 13C12.8152 13 13.0696 12.8946 13.2571 12.7071C13.4446 12.5196 13.55 12.2652 13.55 12Z" fill="#1A1A1A"/>
</svg>