<svg width="94" height="88" viewBox="0 0 94 88" fill="none" xmlns="http://www.w3.org/2000/svg">
<path d="M54.25 36.7918C54.8342 36.2652 54.3155 35.0548 54.7085 34.2505C55.932 31.7327 57.0795 29.7676 53.6159 28.083C50.5243 26.5791 49.3139 28.5153 48.0904 31.0305C47.7288 31.7719 46.7751 32.0968 46.7043 32.8278C44.4197 33.564 42.8321 36.1709 41.3386 39.2389C39.0566 43.9314 39.6356 48.9199 42.6355 50.3766C45.6328 51.8359 49.9139 49.2133 52.1985 44.5208C53.6369 41.5576 54.9783 39.0267 54.25 36.7918Z" fill="#292626"/>
<path d="M46.8125 49.2528C46.5034 49.2528 46.189 49.169 45.9086 48.9882C45.12 48.4878 44.8868 47.4424 45.3872 46.6538C53.6402 33.656 62.4199 26.4012 71.4772 25.0912C78.6246 24.0484 85.937 26.7287 93.1682 33.0402C93.873 33.6533 93.9437 34.7223 93.3307 35.4245C92.7176 36.1292 91.6486 36.2026 90.9464 35.5869C84.4908 29.9539 78.1058 27.5461 71.9619 28.4395C63.9237 29.6028 55.9458 36.3414 48.243 48.4668C47.9208 48.9751 47.3732 49.2528 46.8125 49.2528Z" fill="#292626"/>
<path d="M89.1292 57.7202C88.6838 57.7202 88.2384 57.5446 87.9057 57.1961C73.4459 42.042 60.5241 38.9479 48.4039 47.717C47.6494 48.2672 46.5909 48.0969 46.0433 47.3397C45.4957 46.5825 45.6634 45.5267 46.4206 44.9791C59.9634 35.175 74.7402 38.5024 90.3528 54.8617C90.9973 55.5377 90.9711 56.6066 90.2977 57.2538C89.9702 57.5656 89.5484 57.7202 89.1292 57.7202Z" fill="#292626"/>
<path d="M77.3466 77.1548C76.5606 77.1548 75.8558 76.6046 75.6908 75.8028C71.4726 55.2882 62.1715 45.7724 47.2375 46.81C46.2786 46.8571 45.5005 46.168 45.435 45.2353C45.3721 44.3026 46.0769 43.4957 47.0097 43.4328C63.6781 42.3219 74.4488 52.9722 79.005 75.1217C79.1937 76.0361 78.6042 76.9295 77.6898 77.1181C77.5745 77.1443 77.4592 77.1548 77.3466 77.1548Z" fill="#292626"/>
<path d="M48.8693 87.486C48.5733 87.486 48.2693 87.4074 47.9969 87.2423C47.1978 86.7576 46.941 85.7201 47.4231 84.921C58.2489 66.9897 57.8507 53.7089 46.2022 44.3162C45.4764 43.7293 45.3611 42.6656 45.948 41.9373C46.5322 41.2115 47.596 41.0937 48.327 41.6832C61.3379 52.1737 62.0086 67.3094 50.3208 86.6685C50.0011 87.1952 49.4431 87.486 48.8693 87.486Z" fill="#292626"/>
<path d="M42.485 47.1529C42.299 47.1529 42.1077 47.1215 41.9217 47.056C41.0414 46.7442 40.5776 45.7774 40.8894 44.8971C45.6735 31.3491 46.0482 20.9136 42.0003 13.8737C38.9061 8.49218 33.0714 4.95253 24.6559 3.35433C23.7363 3.17879 23.1337 2.29321 23.3092 1.37621C23.4821 0.459213 24.3703 -0.143327 25.2873 0.0295926C34.7167 1.81905 41.327 5.91145 44.9347 12.1864C49.4961 20.1197 49.2079 31.5036 44.0806 46.021C43.8343 46.718 43.1819 47.1529 42.485 47.1529Z" fill="#292626"/>
<path d="M43.079 45.9243C42.1751 45.9243 41.4258 45.209 41.3918 44.2998C40.8101 29.3475 30.3956 21.0971 9.54565 19.0771C8.61555 18.988 7.93431 18.1601 8.02601 17.23C8.11509 16.2999 8.92471 15.6292 9.87315 15.7104C32.3816 17.8902 44.1244 27.4663 44.7715 44.1662C44.8082 45.0989 44.0798 45.885 43.1471 45.9216C43.1235 45.9243 43.1026 45.9243 43.079 45.9243Z" fill="#292626"/>
<path d="M44.2231 45.397C43.6834 45.397 43.1516 45.1403 42.8241 44.6582C34.3982 32.2892 21.1881 30.8272 2.44722 40.1728C1.60882 40.5972 0.597511 40.2488 0.178311 39.4156C-0.238269 38.5798 0.0997146 37.5633 0.935495 37.1467C21.1724 27.0518 36.2086 28.9382 45.6144 42.7508C46.141 43.5237 45.9418 44.577 45.1689 45.1009C44.8807 45.3027 44.5506 45.397 44.2231 45.397Z" fill="#292626"/>
<path d="M11.1483 69.1346C10.9492 69.1346 10.7474 69.1005 10.5483 69.0246C9.67583 68.6918 9.23567 67.7172 9.56579 66.8421C17.5804 45.6987 29.9074 36.8824 46.1855 40.6342C47.0946 40.8438 47.6632 41.753 47.4536 42.6622C47.244 43.5713 46.3349 44.1424 45.4258 43.9302C30.8376 40.5556 20.148 48.4523 12.7308 68.0394C12.474 68.718 11.8321 69.1346 11.1483 69.1346Z" fill="#292626"/>
</svg>
